<svg xmlns="http://www.w3.org/2000/svg" xmlns:xlink="http://www.w3.org/1999/xlink"  viewBox="0 0 322 307.958"><defs><linearGradient id="a" x1="0.055" y1="0.531" x2="1.105" y2="0.521" gradientUnits="objectBoundingBox"><stop offset="0" stop-color="#083b66"/><stop offset="1" stop-color="#8dcaff"/></linearGradient><linearGradient id="b" y1="0.5" x2="1.59" y2="0.5" gradientUnits="objectBoundingBox"><stop offset="0" stop-color="#e5d80e"/><stop offset="0.189" stop-color="#1761a0"/><stop offset="0.439" stop-color="#265d0c"/><stop offset="1" stop-color="#545454"/></linearGradient></defs><g transform="translate(-840 -97.042)"><g transform="translate(904.4 120.501)"><g transform="translate(0.6 0.499)"><path d="M101.279.5c3.33,0,6.736.144,10.2.424l-43.819,75.9-25.3,43.881L.6,48.435A128.941,128.941,0,0,1,101.278.5Z" transform="translate(-0.6 -0.499)" fill="#df6464"/></g></g><g transform="translate(1056.903 96.273) rotate(60)"><g transform="translate(0.6 0.499)"><path d="M101.279.5c3.33,0,6.736.144,10.2.424l-43.819,75.9-25.3,43.881L.6,48.435A128.941,128.941,0,0,1,101.278.5Z" transform="translate(-0.6 -0.499)" fill="#aa63c6"/></g></g><g transform="translate(1153.94 216.877) rotate(120)"><g transform="translate(0.6 0.499)"><path d="M101.279.5c3.33,0,6.736.144,10.2.424l-43.819,75.9-25.3,43.881L.6,48.435A128.941,128.941,0,0,1,101.278.5Z" transform="translate(-0.6 -0.499)" fill="#f0af5d"/></g></g><g transform="translate(1098.474 361.708) rotate(180)"><g transform="translate(0.6 0.499)"><path d="M101.279.5c3.33,0,6.736.144,10.2.424l-43.819,75.9-25.3,43.881L.6,48.435A128.941,128.941,0,0,1,101.278.5Z" transform="translate(-0.6 -0.499)" fill="#6093bc"/></g></g><g transform="translate(945.971 385.936) rotate(-120)"><g transform="translate(0.6 0.499)"><path d="M101.279.5c3.33,0,6.736.144,10.2.424l-43.819,75.9-25.3,43.881L.6,48.435A128.941,128.941,0,0,1,101.278.5Z" transform="translate(-0.6 -0.499)" fill="#84a476"/></g></g><g transform="translate(848.934 265.332) rotate(-60)"><g transform="translate(0.6 0.499)"><path d="M101.279.5c3.33,0,6.736.144,10.2.424l-43.819,75.9-25.3,43.881L.6,48.435A128.941,128.941,0,0,1,101.278.5Z" transform="translate(-0.6 -0.499)" fill="#efe76d"/></g></g><g transform="translate(1514 598)"><path d="M94.967,84.978c10.182-9.471,21.677-23.633,22.091-44.885-5.141,17.311-22.724,41.964-69.994,74.28,0,0,51.9-72.654,34.334-113.381,0,0,9.691-4.993,29.037,7.423-.013-.03-.023-.068-.035-.1,0,0,32.268,21.622,26.878,45.24-1.059,4.666-.318,10.309,10.911,15.711,2.252,1.075,6.256,2.389,5.19,8.514,0,0-1.089,4.36-3.264,6.026a3.18,3.18,0,0,0-.331.229c-2.8,2.662,2.059,1.9,3.587,2.391,2.6.835,2.665,5.989-1.46,10.514,0,0,6.654,6.656,2.926,12.514,0,0-.926,1.056-4.794.529,0,0,2.976,21-13.174,20.492-9.5-.312-30.211-8.121-37.79,4.129,0,0-25.686,31.542,5.454,75.456,0,0-35.92-13.3-39.648-54.039C64.891,156.035,53.441,123.563,94.967,84.978Z" transform="translate(-614.063 -458)" fill="url(#a)"/></g><text transform="translate(873 388)" font-size="31" font-family="WorkSans-MediumItalic, Work Sans" font-weight="500" font-style="italic"><tspan x="0" y="0">Random Pictures</tspan></text><rect width="322" height="9" rx="4.5" transform="translate(840 396)" fill="url(#b)"/></g></svg>